<svg width="128" height="128" viewBox="0 0 128 128" fill="none" xmlns="http://www.w3.org/2000/svg">
<path d="M9 42C9 26.536 21.536 14 37 14V42H9Z" fill="#FFA72D"/>
<path d="M118.109 14C118.109 29.464 105.573 42 90.1094 42V14H118.109Z" fill="#FF39B9"/>
<path d="M77.2188 42V114.445H49.2188V42V14C64.6827 14 77.2188 26.536 77.2188 42Z" fill="#FF203B"/>
<path d="M9 83.7786C9 68.3133 21.536 55.7786 37 55.7786V83.7786V86.4453V114.445C21.5347 114.445 9 101.909 9 86.4453V83.7786Z" fill="#FFA72D"/>
<path d="M90.1107 83.7773V55.7773C105.575 55.7773 118.111 68.3133 118.111 83.7773L118.109 86.4453V114.445C102.645 114.445 90.1094 101.909 90.1094 86.4453L90.1107 83.7773Z" fill="#FF39B9"/>
<g style="mix-blend-mode:soft-light">
<path d="M9 42C9 26.536 21.536 14 37 14V42H9Z" fill="url(#paint0_linear_1346_4586)"/>
<path d="M118.109 14C118.109 29.464 105.573 42 90.1094 42V14H118.109Z" fill="url(#paint1_linear_1346_4586)"/>
<path d="M77.2188 42V114.445H49.2188V14C64.6827 14 77.2188 26.536 77.2188 42Z" fill="url(#paint2_linear_1346_4586)"/>
<path d="M9 83.7787C9 68.3133 21.536 55.7787 37 55.7787V114.445C21.5347 114.445 9 101.909 9 86.4453V83.7787Z" fill="url(#paint3_linear_1346_4586)"/>
<path d="M90.1107 55.7773C105.575 55.7773 118.111 68.3133 118.111 83.7773L118.109 114.445C102.645 114.445 90.1094 101.909 90.1094 86.4453L90.1107 55.7773Z" fill="url(#paint4_linear_1346_4586)"/>
</g>
<defs>
<linearGradient id="paint0_linear_1346_4586" x1="76.3906" y1="14" x2="76.3906" y2="114" gradientUnits="userSpaceOnUse">
<stop stop-color="white"/>
<stop offset="1"/>
</linearGradient>
<linearGradient id="paint1_linear_1346_4586" x1="76.3906" y1="14" x2="76.3906" y2="114" gradientUnits="userSpaceOnUse">
<stop stop-color="white"/>
<stop offset="1"/>
</linearGradient>
<linearGradient id="paint2_linear_1346_4586" x1="76.3906" y1="14" x2="76.3906" y2="114" gradientUnits="userSpaceOnUse">
<stop stop-color="white"/>
<stop offset="1"/>
</linearGradient>
<linearGradient id="paint3_linear_1346_4586" x1="76.3906" y1="14" x2="76.3906" y2="114" gradientUnits="userSpaceOnUse">
<stop stop-color="white"/>
<stop offset="1"/>
</linearGradient>
<linearGradient id="paint4_linear_1346_4586" x1="76.3906" y1="14" x2="76.3906" y2="114" gradientUnits="userSpaceOnUse">
<stop stop-color="white"/>
<stop offset="1"/>
</linearGradient>
</defs>
</svg>
